<svg fill="#000000" xmlns="http://www.w3.org/2000/svg"  viewBox="0 0 24 24" width="192px" height="192px"><path d="M 12 2 C 11.724 2 11.5 2.224 11.5 2.5 L 11.5 3.5 L 10.5 3.5 C 10.224 3.5 10 3.724 10 4 C 10 4.276 10.224 4.5 10.5 4.5 L 11.5 4.5 L 11.5 5.5 C 11.5 5.776 11.724 6 12 6 C 12.276 6 12.5 5.776 12.5 5.5 L 12.5 4.5 L 13.5 4.5 C 13.776 4.5 14 4.276 14 4 C 14 3.724 13.776 3.5 13.5 3.5 L 12.5 3.5 L 12.5 2.5 C 12.5 2.224 12.276 2 12 2 z M 6.5 4 C 6.224 4 6 4.224 6 4.5 L 6 6 L 4.5 6 C 4.224 6 4 6.224 4 6.5 C 4 6.776 4.224 7 4.5 7 L 6 7 L 6 8.5 C 6 8.776 6.224 9 6.5 9 C 6.776 9 7 8.776 7 8.5 L 7 7 L 8.5 7 C 8.776 7 9 6.776 9 6.5 C 9 6.224 8.776 6 8.5 6 L 7 6 L 7 4.5 C 7 4.224 6.776 4 6.5 4 z M 17.5 4 C 17.224 4 17 4.224 17 4.5 L 17 6 L 15.5 6 C 15.224 6 15 6.224 15 6.5 C 15 6.776 15.224 7 15.5 7 L 17 7 L 17 8.5 C 17 8.776 17.224 9 17.5 9 C 17.776 9 18 8.776 18 8.5 L 18 7 L 19.5 7 C 19.776 7 20 6.776 20 6.5 C 20 6.224 19.776 6 19.5 6 L 18 6 L 18 4.5 C 18 4.224 17.776 4 17.5 4 z M 12 8 C 11.448 8 11 8.448 11 9 L 11 11 L 9 11 C 8.448 11 8 11.448 8 12 C 8 12.552 8.448 13 9 13 L 11 13 L 11 15 C 11 15.552 11.448 16 12 16 C 12.552 16 13 15.552 13 15 L 13 13 L 15 13 C 15.552 13 16 12.552 16 12 C 16 11.448 15.552 11 15 11 L 13 11 L 13 9 C 13 8.448 12.552 8 12 8 z M 4 10 C 3.724 10 3.5 10.224 3.5 10.5 L 3.5 11.5 L 2.5 11.5 C 2.224 11.5 2 11.724 2 12 C 2 12.276 2.224 12.5 2.5 12.5 L 3.5 12.5 L 3.5 13.5 C 3.5 13.776 3.724 14 4 14 C 4.276 14 4.5 13.776 4.5 13.5 L 4.5 12.5 L 5.5 12.5 C 5.776 12.5 6 12.276 6 12 C 6 11.724 5.776 11.5 5.5 11.5 L 4.5 11.5 L 4.5 10.5 C 4.5 10.224 4.276 10 4 10 z M 20 10 C 19.724 10 19.5 10.224 19.5 10.5 L 19.5 11.5 L 18.5 11.5 C 18.224 11.5 18 11.724 18 12 C 18 12.276 18.224 12.5 18.5 12.5 L 19.5 12.5 L 19.5 13.5 C 19.5 13.776 19.724 14 20 14 C 20.276 14 20.5 13.776 20.5 13.5 L 20.5 12.5 L 21.5 12.5 C 21.776 12.5 22 12.276 22 12 C 22 11.724 21.776 11.5 21.5 11.5 L 20.5 11.5 L 20.5 10.5 C 20.5 10.224 20.276 10 20 10 z M 6.5 15 C 6.224 15 6 15.224 6 15.5 L 6 17 L 4.5 17 C 4.224 17 4 17.224 4 17.5 C 4 17.776 4.224 18 4.5 18 L 6 18 L 6 19.5 C 6 19.776 6.224 20 6.5 20 C 6.776 20 7 19.776 7 19.5 L 7 18 L 8.5 18 C 8.776 18 9 17.776 9 17.5 C 9 17.224 8.776 17 8.5 17 L 7 17 L 7 15.5 C 7 15.224 6.776 15 6.5 15 z M 17.5 15 C 17.224 15 17 15.224 17 15.5 L 17 17 L 15.5 17 C 15.224 17 15 17.224 15 17.5 C 15 17.776 15.224 18 15.5 18 L 17 18 L 17 19.5 C 17 19.776 17.224 20 17.5 20 C 17.776 20 18 19.776 18 19.5 L 18 18 L 19.5 18 C 19.776 18 20 17.776 20 17.5 C 20 17.224 19.776 17 19.5 17 L 18 17 L 18 15.5 C 18 15.224 17.776 15 17.5 15 z M 12 18 C 11.724 18 11.5 18.224 11.5 18.5 L 11.5 19.5 L 10.5 19.5 C 10.224 19.5 10 19.724 10 20 C 10 20.276 10.224 20.5 10.5 20.5 L 11.5 20.5 L 11.5 21.5 C 11.5 21.776 11.724 22 12 22 C 12.276 22 12.5 21.776 12.5 21.5 L 12.5 20.5 L 13.5 20.5 C 13.776 20.5 14 20.276 14 20 C 14 19.724 13.776 19.5 13.5 19.5 L 12.5 19.5 L 12.5 18.5 C 12.5 18.224 12.276 18 12 18 z"/></svg>